# Close-up-GS 3D Gaussians as spheres
# Compatible with Blender, Maya, 3ds Max, etc.

v -0.887902 -1.406820 -9.771198 1.000 0.525 0.525
v -0.886850 -1.407872 -9.771198 1.000 0.525 0.525
v -0.887902 -1.407872 -9.770146 1.000 0.525 0.525
v -0.888954 -1.407872 -9.771198 1.000 0.525 0.525
v -0.887902 -1.407872 -9.772250 1.000 0.525 0.525
v -0.887902 -1.408924 -9.771198 1.000 0.525 0.525
f 1 2 3
f 1 3 4
f 1 4 5
f 1 5 2
f 6 3 2
f 6 4 3
f 6 5 4
f 6 2 5
v 1.105959 0.890368 -5.306017 0.821 0.500 0.500
v 1.106959 0.889368 -5.306017 0.821 0.500 0.500
v 1.105959 0.889368 -5.305017 0.821 0.500 0.500
v 1.104959 0.889368 -5.306017 0.821 0.500 0.500
v 1.105959 0.889368 -5.307017 0.821 0.500 0.500
v 1.105959 0.888368 -5.306017 0.821 0.500 0.500
f 7 8 9
f 7 9 10
f 7 10 11
f 7 11 8
f 12 9 8
f 12 10 9
f 12 11 10
f 12 8 11
v -1.233526 -2.981825 -7.824166 1.000 0.500 0.500
v -1.232526 -2.982825 -7.824166 1.000 0.500 0.500
v -1.233526 -2.982825 -7.823166 1.000 0.500 0.500
v -1.234526 -2.982825 -7.824166 1.000 0.500 0.500
v -1.233526 -2.982825 -7.825166 1.000 0.500 0.500
v -1.233526 -2.983825 -7.824166 1.000 0.500 0.500
f 13 14 15
f 13 15 16
f 13 16 17
f 13 17 14
f 18 15 14
f 18 16 15
f 18 17 16
f 18 14 17
v -0.351179 0.009462 -5.351939 1.000 0.500 0.500
v -0.350179 0.008462 -5.351939 1.000 0.500 0.500
v -0.351179 0.008462 -5.350939 1.000 0.500 0.500
v -0.352179 0.008462 -5.351939 1.000 0.500 0.500
v -0.351179 0.008462 -5.352939 1.000 0.500 0.500
v -0.351179 0.007462 -5.351939 1.000 0.500 0.500
f 19 20 21
f 19 21 22
f 19 22 23
f 19 23 20
f 24 21 20
f 24 22 21
f 24 23 22
f 24 20 23
v -0.938425 -2.525076 -5.942987 1.000 0.500 0.500
v -0.937425 -2.526076 -5.942987 1.000 0.500 0.500
v -0.938425 -2.526076 -5.941987 1.000 0.500 0.500
v -0.939425 -2.526076 -5.942987 1.000 0.500 0.500
v -0.938425 -2.526076 -5.943987 1.000 0.500 0.500
v -0.938425 -2.527076 -5.942987 1.000 0.500 0.500
f 25 26 27
f 25 27 28
f 25 28 29
f 25 29 26
f 30 27 26
f 30 28 27
f 30 29 28
f 30 26 29
v -0.212003 -2.668380 -8.604925 1.000 0.500 0.500
v -0.211003 -2.669380 -8.604925 1.000 0.500 0.500
v -0.212003 -2.669380 -8.603925 1.000 0.500 0.500
v -0.213003 -2.669380 -8.604925 1.000 0.500 0.500
v -0.212003 -2.669380 -8.605925 1.000 0.500 0.500
v -0.212003 -2.670380 -8.604925 1.000 0.500 0.500
f 31 32 33
f 31 33 34
f 31 34 35
f 31 35 32
f 36 33 32
f 36 34 33
f 36 35 34
f 36 32 35
v -0.417063 -4.513891 -10.416550 1.000 0.500 0.500
v -0.416063 -4.514891 -10.416550 1.000 0.500 0.500
v -0.417063 -4.514891 -10.415550 1.000 0.500 0.500
v -0.418063 -4.514891 -10.416550 1.000 0.500 0.500
v -0.417063 -4.514891 -10.417550 1.000 0.500 0.500
v -0.417063 -4.515891 -10.416550 1.000 0.500 0.500
f 37 38 39
f 37 39 40
f 37 40 41
f 37 41 38
f 42 39 38
f 42 40 39
f 42 41 40
f 42 38 41
v -0.200575 -1.123745 -8.174518 1.000 0.525 0.525
v -0.199523 -1.124797 -8.174518 1.000 0.525 0.525
v -0.200575 -1.124797 -8.173466 1.000 0.525 0.525
v -0.201627 -1.124797 -8.174518 1.000 0.525 0.525
v -0.200575 -1.124797 -8.175570 1.000 0.525 0.525
v -0.200575 -1.125849 -8.174518 1.000 0.525 0.525
f 43 44 45
f 43 45 46
f 43 46 47
f 43 47 44
f 48 45 44
f 48 46 45
f 48 47 46
f 48 44 47
v 0.495058 -0.997083 -9.146745 0.834 0.500 0.500
v 0.496058 -0.998083 -9.146745 0.834 0.500 0.500
v 0.495058 -0.998083 -9.145745 0.834 0.500 0.500
v 0.494058 -0.998083 -9.146745 0.834 0.500 0.500
v 0.495058 -0.998083 -9.147745 0.834 0.500 0.500
v 0.495058 -0.999083 -9.146745 0.834 0.500 0.500
f 49 50 51
f 49 51 52
f 49 52 53
f 49 53 50
f 54 51 50
f 54 52 51
f 54 53 52
f 54 50 53
v -0.377994 -2.354222 -7.052102 1.000 0.500 0.500
v -0.376994 -2.355222 -7.052102 1.000 0.500 0.500
v -0.377994 -2.355222 -7.051102 1.000 0.500 0.500
v -0.378994 -2.355222 -7.052102 1.000 0.500 0.500
v -0.377994 -2.355222 -7.053102 1.000 0.500 0.500
v -0.377994 -2.356222 -7.052102 1.000 0.500 0.500
f 55 56 57
f 55 57 58
f 55 58 59
f 55 59 56
f 60 57 56
f 60 58 57
f 60 59 58
f 60 56 59
v 1.882780 -0.884748 -7.007910 1.000 0.500 0.500
v 1.883780 -0.885748 -7.007910 1.000 0.500 0.500
v 1.882780 -0.885748 -7.006910 1.000 0.500 0.500
v 1.881780 -0.885748 -7.007910 1.000 0.500 0.500
v 1.882780 -0.885748 -7.008910 1.000 0.500 0.500
v 1.882780 -0.886748 -7.007910 1.000 0.500 0.500
f 61 62 63
f 61 63 64
f 61 64 65
f 61 65 62
f 66 63 62
f 66 64 63
f 66 65 64
f 66 62 65
v 0.751576 -2.319532 -12.265309 0.565 0.525 0.525
v 0.752628 -2.320584 -12.265309 0.565 0.525 0.525
v 0.751576 -2.320584 -12.264257 0.565 0.525 0.525
v 0.750524 -2.320584 -12.265309 0.565 0.525 0.525
v 0.751576 -2.320584 -12.266361 0.565 0.525 0.525
v 0.751576 -2.321636 -12.265309 0.565 0.525 0.525
f 67 68 69
f 67 69 70
f 67 70 71
f 67 71 68
f 72 69 68
f 72 70 69
f 72 71 70
f 72 68 71
v -1.990750 -1.906623 -11.393221 1.000 0.525 0.525
v -1.989698 -1.907675 -11.393221 1.000 0.525 0.525
v -1.990750 -1.907675 -11.392169 1.000 0.525 0.525
v -1.991802 -1.907675 -11.393221 1.000 0.525 0.525
v -1.990750 -1.907675 -11.394273 1.000 0.525 0.525
v -1.990750 -1.908727 -11.393221 1.000 0.525 0.525
f 73 74 75
f 73 75 76
f 73 76 77
f 73 77 74
f 78 75 74
f 78 76 75
f 78 77 76
f 78 74 77
v 2.153170 -3.776454 -4.998170 1.000 0.500 0.500
v 2.154170 -3.777454 -4.998170 1.000 0.500 0.500
v 2.153170 -3.777454 -4.997170 1.000 0.500 0.500
v 2.152170 -3.777454 -4.998170 1.000 0.500 0.500
v 2.153170 -3.777454 -4.999170 1.000 0.500 0.500
v 2.153170 -3.778454 -4.998170 1.000 0.500 0.500
f 79 80 81
f 79 81 82
f 79 82 83
f 79 83 80
f 84 81 80
f 84 82 81
f 84 83 82
f 84 80 83
v -1.800315 0.952366 -8.182744 0.683 0.500 0.500
v -1.799315 0.951366 -8.182744 0.683 0.500 0.500
v -1.800315 0.951366 -8.181744 0.683 0.500 0.500
v -1.801315 0.951366 -8.182744 0.683 0.500 0.500
v -1.800315 0.951366 -8.183744 0.683 0.500 0.500
v -1.800315 0.950366 -8.182744 0.683 0.500 0.500
f 85 86 87
f 85 87 88
f 85 88 89
f 85 89 86
f 90 87 86
f 90 88 87
f 90 89 88
f 90 86 89
v 2.309107 -2.668312 -5.532034 1.000 0.500 0.500
v 2.310107 -2.669312 -5.532034 1.000 0.500 0.500
v 2.309107 -2.669312 -5.531034 1.000 0.500 0.500
v 2.308107 -2.669312 -5.532034 1.000 0.500 0.500
v 2.309107 -2.669312 -5.533034 1.000 0.500 0.500
v 2.309107 -2.670312 -5.532034 1.000 0.500 0.500
f 91 92 93
f 91 93 94
f 91 94 95
f 91 95 92
f 96 93 92
f 96 94 93
f 96 95 94
f 96 92 95
v 0.208432 -0.547251 -11.246354 1.000 0.525 0.525
v 0.209483 -0.548302 -11.246354 1.000 0.525 0.525
v 0.208432 -0.548302 -11.245303 1.000 0.525 0.525
v 0.207380 -0.548302 -11.246354 1.000 0.525 0.525
v 0.208432 -0.548302 -11.247405 1.000 0.525 0.525
v 0.208432 -0.549354 -11.246354 1.000 0.525 0.525
f 97 98 99
f 97 99 100
f 97 100 101
f 97 101 98
f 102 99 98
f 102 100 99
f 102 101 100
f 102 98 101
v 1.108062 -3.205782 -6.980846 1.000 0.500 0.500
v 1.109062 -3.206782 -6.980846 1.000 0.500 0.500
v 1.108062 -3.206782 -6.979846 1.000 0.500 0.500
v 1.107062 -3.206782 -6.980846 1.000 0.500 0.500
v 1.108062 -3.206782 -6.981846 1.000 0.500 0.500
v 1.108062 -3.207782 -6.980846 1.000 0.500 0.500
f 103 104 105
f 103 105 106
f 103 106 107
f 103 107 104
f 108 105 104
f 108 106 105
f 108 107 106
f 108 104 107
v -0.244168 -2.393794 -8.889578 1.000 0.500 0.500
v -0.243168 -2.394794 -8.889578 1.000 0.500 0.500
v -0.244168 -2.394794 -8.888578 1.000 0.500 0.500
v -0.245168 -2.394794 -8.889578 1.000 0.500 0.500
v -0.244168 -2.394794 -8.890578 1.000 0.500 0.500
v -0.244168 -2.395794 -8.889578 1.000 0.500 0.500
f 109 110 111
f 109 111 112
f 109 112 113
f 109 113 110
f 114 111 110
f 114 112 111
f 114 113 112
f 114 110 113
v -0.922064 0.109494 -6.672944 0.705 0.500 0.500
v -0.921064 0.108494 -6.672944 0.705 0.500 0.500
v -0.922064 0.108494 -6.671944 0.705 0.500 0.500
v -0.923064 0.108494 -6.672944 0.705 0.500 0.500
v -0.922064 0.108494 -6.673944 0.705 0.500 0.500
v -0.922064 0.107494 -6.672944 0.705 0.500 0.500
f 115 116 117
f 115 117 118
f 115 118 119
f 115 119 116
f 120 117 116
f 120 118 117
f 120 119 118
f 120 116 119
v -4.094901 -0.285140 -4.816061 1.000 0.500 0.500
v -4.093901 -0.286140 -4.816061 1.000 0.500 0.500
v -4.094901 -0.286140 -4.815061 1.000 0.500 0.500
v -4.095901 -0.286140 -4.816061 1.000 0.500 0.500
v -4.094901 -0.286140 -4.817061 1.000 0.500 0.500
v -4.094901 -0.287140 -4.816061 1.000 0.500 0.500
f 121 122 123
f 121 123 124
f 121 124 125
f 121 125 122
f 126 123 122
f 126 124 123
f 126 125 124
f 126 122 125
v -0.200890 -3.646150 -11.656319 0.863 0.500 0.500
v -0.199890 -3.647150 -11.656319 0.863 0.500 0.500
v -0.200890 -3.647150 -11.655319 0.863 0.500 0.500
v -0.201890 -3.647150 -11.656319 0.863 0.500 0.500
v -0.200890 -3.647150 -11.657319 0.863 0.500 0.500
v -0.200890 -3.648150 -11.656319 0.863 0.500 0.500
f 127 128 129
f 127 129 130
f 127 130 131
f 127 131 128
f 132 129 128
f 132 130 129
f 132 131 130
f 132 128 131
v -2.304149 -3.765979 -12.262706 0.950 0.500 0.500
v -2.303149 -3.766979 -12.262706 0.950 0.500 0.500
v -2.304149 -3.766979 -12.261706 0.950 0.500 0.500
v -2.305149 -3.766979 -12.262706 0.950 0.500 0.500
v -2.304149 -3.766979 -12.263706 0.950 0.500 0.500
v -2.304149 -3.767979 -12.262706 0.950 0.500 0.500
f 133 134 135
f 133 135 136
f 133 136 137
f 133 137 134
f 138 135 134
f 138 136 135
f 138 137 136
f 138 134 137
v -0.983323 0.055434 -5.962438 1.000 0.500 0.500
v -0.982323 0.054434 -5.962438 1.000 0.500 0.500
v -0.983323 0.054434 -5.961438 1.000 0.500 0.500
v -0.984323 0.054434 -5.962438 1.000 0.500 0.500
v -0.983323 0.054434 -5.963438 1.000 0.500 0.500
v -0.983323 0.053434 -5.962438 1.000 0.500 0.500
f 139 140 141
f 139 141 142
f 139 142 143
f 139 143 140
f 144 141 140
f 144 142 141
f 144 143 142
f 144 140 143
v 0.110650 -2.791063 -6.306747 1.000 0.500 0.500
v 0.111650 -2.792063 -6.306747 1.000 0.500 0.500
v 0.110650 -2.792063 -6.305747 1.000 0.500 0.500
v 0.109650 -2.792063 -6.306747 1.000 0.500 0.500
v 0.110650 -2.792063 -6.307747 1.000 0.500 0.500
v 0.110650 -2.793063 -6.306747 1.000 0.500 0.500
f 145 146 147
f 145 147 148
f 145 148 149
f 145 149 146
f 150 147 146
f 150 148 147
f 150 149 148
f 150 146 149
v -1.100577 -3.221145 -8.221954 1.000 0.500 0.500
v -1.099577 -3.222145 -8.221954 1.000 0.500 0.500
v -1.100577 -3.222145 -8.220954 1.000 0.500 0.500
v -1.101577 -3.222145 -8.221954 1.000 0.500 0.500
v -1.100577 -3.222145 -8.222954 1.000 0.500 0.500
v -1.100577 -3.223145 -8.221954 1.000 0.500 0.500
f 151 152 153
f 151 153 154
f 151 154 155
f 151 155 152
f 156 153 152
f 156 154 153
f 156 155 154
f 156 152 155
v -4.107891 -3.666272 -4.756884 1.000 0.500 0.500
v -4.106891 -3.667272 -4.756884 1.000 0.500 0.500
v -4.107891 -3.667272 -4.755884 1.000 0.500 0.500
v -4.108891 -3.667272 -4.756884 1.000 0.500 0.500
v -4.107891 -3.667272 -4.757884 1.000 0.500 0.500
v -4.107891 -3.668272 -4.756884 1.000 0.500 0.500
f 157 158 159
f 157 159 160
f 157 160 161
f 157 161 158
f 162 159 158
f 162 160 159
f 162 161 160
f 162 158 161
v -3.894926 -3.796713 -8.291731 1.000 0.500 0.500
v -3.893926 -3.797713 -8.291731 1.000 0.500 0.500
v -3.894926 -3.797713 -8.290731 1.000 0.500 0.500
v -3.895926 -3.797713 -8.291731 1.000 0.500 0.500
v -3.894926 -3.797713 -8.292731 1.000 0.500 0.500
v -3.894926 -3.798713 -8.291731 1.000 0.500 0.500
f 163 164 165
f 163 165 166
f 163 166 167
f 163 167 164
f 168 165 164
f 168 166 165
f 168 167 166
f 168 164 167
v -1.357043 -0.721991 -12.407616 0.586 0.525 0.525
v -1.355992 -0.723042 -12.407616 0.586 0.525 0.525
v -1.357043 -0.723042 -12.406564 0.586 0.525 0.525
v -1.358094 -0.723042 -12.407616 0.586 0.525 0.525
v -1.357043 -0.723042 -12.408667 0.586 0.525 0.525
v -1.357043 -0.724093 -12.407616 0.586 0.525 0.525
f 169 170 171
f 169 171 172
f 169 172 173
f 169 173 170
f 174 171 170
f 174 172 171
f 174 173 172
f 174 170 173
v -1.793232 -2.065312 -7.758107 0.506 0.500 0.500
v -1.792232 -2.066312 -7.758107 0.506 0.500 0.500
v -1.793232 -2.066312 -7.757107 0.506 0.500 0.500
v -1.794232 -2.066312 -7.758107 0.506 0.500 0.500
v -1.793232 -2.066312 -7.759107 0.506 0.500 0.500
v -1.793232 -2.067312 -7.758107 0.506 0.500 0.500
f 175 176 177
f 175 177 178
f 175 178 179
f 175 179 176
f 180 177 176
f 180 178 177
f 180 179 178
f 180 176 179
v -1.890759 1.195209 -5.485175 0.530 0.500 0.500
v -1.889759 1.194209 -5.485175 0.530 0.500 0.500
v -1.890759 1.194209 -5.484175 0.530 0.500 0.500
v -1.891759 1.194209 -5.485175 0.530 0.500 0.500
v -1.890759 1.194209 -5.486175 0.530 0.500 0.500
v -1.890759 1.193209 -5.485175 0.530 0.500 0.500
f 181 182 183
f 181 183 184
f 181 184 185
f 181 185 182
f 186 183 182
f 186 184 183
f 186 185 184
f 186 182 185
v -0.538843 -0.168546 -7.144713 1.000 0.475 0.525
v -0.537791 -0.169598 -7.144713 1.000 0.475 0.525
v -0.538843 -0.169598 -7.143661 1.000 0.475 0.525
v -0.539894 -0.169598 -7.144713 1.000 0.475 0.525
v -0.538843 -0.169598 -7.145765 1.000 0.475 0.525
v -0.538843 -0.170650 -7.144713 1.000 0.475 0.525
f 187 188 189
f 187 189 190
f 187 190 191
f 187 191 188
f 192 189 188
f 192 190 189
f 192 191 190
f 192 188 191
v -2.687773 -1.202575 -9.976954 1.000 0.500 0.500
v -2.686773 -1.203575 -9.976954 1.000 0.500 0.500
v -2.687773 -1.203575 -9.975954 1.000 0.500 0.500
v -2.688773 -1.203575 -9.976954 1.000 0.500 0.500
v -2.687773 -1.203575 -9.977954 1.000 0.500 0.500
v -2.687773 -1.204575 -9.976954 1.000 0.500 0.500
f 193 194 195
f 193 195 196
f 193 196 197
f 193 197 194
f 198 195 194
f 198 196 195
f 198 197 196
f 198 194 197
v -1.543766 -0.165460 -7.090460 1.000 0.500 0.500
v -1.542766 -0.166460 -7.090460 1.000 0.500 0.500
v -1.543766 -0.166460 -7.089460 1.000 0.500 0.500
v -1.544766 -0.166460 -7.090460 1.000 0.500 0.500
v -1.543766 -0.166460 -7.091460 1.000 0.500 0.500
v -1.543766 -0.167460 -7.090460 1.000 0.500 0.500
f 199 200 201
f 199 201 202
f 199 202 203
f 199 203 200
f 204 201 200
f 204 202 201
f 204 203 202
f 204 200 203
v 0.227412 -0.850287 -6.357262 0.793 0.500 0.500
v 0.228412 -0.851287 -6.357262 0.793 0.500 0.500
v 0.227412 -0.851287 -6.356262 0.793 0.500 0.500
v 0.226412 -0.851287 -6.357262 0.793 0.500 0.500
v 0.227412 -0.851287 -6.358262 0.793 0.500 0.500
v 0.227412 -0.852287 -6.357262 0.793 0.500 0.500
f 205 206 207
f 205 207 208
f 205 208 209
f 205 209 206
f 210 207 206
f 210 208 207
f 210 209 208
f 210 206 209
v 0.516176 2.308024 -12.276138 0.717 0.500 0.500
v 0.517176 2.307024 -12.276138 0.717 0.500 0.500
v 0.516176 2.307024 -12.275138 0.717 0.500 0.500
v 0.515176 2.307024 -12.276138 0.717 0.500 0.500
v 0.516176 2.307024 -12.277138 0.717 0.500 0.500
v 0.516176 2.306024 -12.276138 0.717 0.500 0.500
f 211 212 213
f 211 213 214
f 211 214 215
f 211 215 212
f 216 213 212
f 216 214 213
f 216 215 214
f 216 212 215
v -0.240007 -2.521609 -6.954954 1.000 0.500 0.500
v -0.239007 -2.522609 -6.954954 1.000 0.500 0.500
v -0.240007 -2.522609 -6.953954 1.000 0.500 0.500
v -0.241007 -2.522609 -6.954954 1.000 0.500 0.500
v -0.240007 -2.522609 -6.955954 1.000 0.500 0.500
v -0.240007 -2.523609 -6.954954 1.000 0.500 0.500
f 217 218 219
f 217 219 220
f 217 220 221
f 217 221 218
f 222 219 218
f 222 220 219
f 222 221 220
f 222 218 221
v 1.635554 -2.542546 -6.529823 0.614 0.500 0.500
v 1.636554 -2.543546 -6.529823 0.614 0.500 0.500
v 1.635554 -2.543546 -6.528823 0.614 0.500 0.500
v 1.634554 -2.543546 -6.529823 0.614 0.500 0.500
v 1.635554 -2.543546 -6.530823 0.614 0.500 0.500
v 1.635554 -2.544546 -6.529823 0.614 0.500 0.500
f 223 224 225
f 223 225 226
f 223 226 227
f 223 227 224
f 228 225 224
f 228 226 225
f 228 227 226
f 228 224 227
v -0.280287 -0.698081 -5.517346 0.680 0.495 0.495
v -0.279236 -0.699133 -5.517346 0.680 0.495 0.495
v -0.280287 -0.699133 -5.516294 0.680 0.495 0.495
v -0.281339 -0.699133 -5.517346 0.680 0.495 0.495
v -0.280287 -0.699133 -5.518397 0.680 0.495 0.495
v -0.280287 -0.700184 -5.517346 0.680 0.495 0.495
f 229 230 231
f 229 231 232
f 229 232 233
f 229 233 230
f 234 231 230
f 234 232 231
f 234 233 232
f 234 230 233
v -0.029899 -0.174961 -11.244321 0.671 0.475 0.525
v -0.028847 -0.176013 -11.244321 0.671 0.475 0.525
v -0.029899 -0.176013 -11.243269 0.671 0.475 0.525
v -0.030951 -0.176013 -11.244321 0.671 0.475 0.525
v -0.029899 -0.176013 -11.245373 0.671 0.475 0.525
v -0.029899 -0.177065 -11.244321 0.671 0.475 0.525
f 235 236 237
f 235 237 238
f 235 238 239
f 235 239 236
f 240 237 236
f 240 238 237
f 240 239 238
f 240 236 239
v -2.382445 -0.645153 -9.745203 0.652 0.500 0.500
v -2.381445 -0.646153 -9.745203 0.652 0.500 0.500
v -2.382445 -0.646153 -9.744203 0.652 0.500 0.500
v -2.383445 -0.646153 -9.745203 0.652 0.500 0.500
v -2.382445 -0.646153 -9.746203 0.652 0.500 0.500
v -2.382445 -0.647153 -9.745203 0.652 0.500 0.500
f 241 242 243
f 241 243 244
f 241 244 245
f 241 245 242
f 246 243 242
f 246 244 243
f 246 245 244
f 246 242 245
v -0.976253 0.151307 -7.785350 1.000 0.500 0.500
v -0.975253 0.150307 -7.785350 1.000 0.500 0.500
v -0.976253 0.150307 -7.784350 1.000 0.500 0.500
v -0.977253 0.150307 -7.785350 1.000 0.500 0.500
v -0.976253 0.150307 -7.786350 1.000 0.500 0.500
v -0.976253 0.149307 -7.785350 1.000 0.500 0.500
f 247 248 249
f 247 249 250
f 247 250 251
f 247 251 248
f 252 249 248
f 252 250 249
f 252 251 250
f 252 248 251
v -2.444662 -2.084855 -12.595601 1.000 0.500 0.500
v -2.443662 -2.085855 -12.595601 1.000 0.500 0.500
v -2.444662 -2.085855 -12.594601 1.000 0.500 0.500
v -2.445662 -2.085855 -12.595601 1.000 0.500 0.500
v -2.444662 -2.085855 -12.596601 1.000 0.500 0.500
v -2.444662 -2.086855 -12.595601 1.000 0.500 0.500
f 253 254 255
f 253 255 256
f 253 256 257
f 253 257 254
f 258 255 254
f 258 256 255
f 258 257 256
f 258 254 257
v 0.167837 -0.651776 -8.768275 1.000 0.525 0.525
v 0.168889 -0.652828 -8.768275 1.000 0.525 0.525
v 0.167837 -0.652828 -8.767223 1.000 0.525 0.525
v 0.166785 -0.652828 -8.768275 1.000 0.525 0.525
v 0.167837 -0.652828 -8.769327 1.000 0.525 0.525
v 0.167837 -0.653880 -8.768275 1.000 0.525 0.525
f 259 260 261
f 259 261 262
f 259 262 263
f 259 263 260
f 264 261 260
f 264 262 261
f 264 263 262
f 264 260 263
v 1.943696 -1.462903 -12.422020 1.000 0.500 0.500
v 1.944696 -1.463903 -12.422020 1.000 0.500 0.500
v 1.943696 -1.463903 -12.421020 1.000 0.500 0.500
v 1.942696 -1.463903 -12.422020 1.000 0.500 0.500
v 1.943696 -1.463903 -12.423020 1.000 0.500 0.500
v 1.943696 -1.464903 -12.422020 1.000 0.500 0.500
f 265 266 267
f 265 267 268
f 265 268 269
f 265 269 266
f 270 267 266
f 270 268 267
f 270 269 268
f 270 266 269
v -0.889468 -4.662499 -10.179070 1.000 0.500 0.500
v -0.888468 -4.663499 -10.179070 1.000 0.500 0.500
v -0.889468 -4.663499 -10.178070 1.000 0.500 0.500
v -0.890468 -4.663499 -10.179070 1.000 0.500 0.500
v -0.889468 -4.663499 -10.180070 1.000 0.500 0.500
v -0.889468 -4.664499 -10.179070 1.000 0.500 0.500
f 271 272 273
f 271 273 274
f 271 274 275
f 271 275 272
f 276 273 272
f 276 274 273
f 276 275 274
f 276 272 275
v 1.244622 -2.631337 -5.653870 1.000 0.500 0.500
v 1.245622 -2.632337 -5.653870 1.000 0.500 0.500
v 1.244622 -2.632337 -5.652870 1.000 0.500 0.500
v 1.243622 -2.632337 -5.653870 1.000 0.500 0.500
v 1.244622 -2.632337 -5.654870 1.000 0.500 0.500
v 1.244622 -2.633337 -5.653870 1.000 0.500 0.500
f 277 278 279
f 277 279 280
f 277 280 281
f 277 281 278
f 282 279 278
f 282 280 279
f 282 281 280
f 282 278 281
v 1.947670 0.937544 -11.854532 1.000 0.500 0.500
v 1.948670 0.936544 -11.854532 1.000 0.500 0.500
v 1.947670 0.936544 -11.853532 1.000 0.500 0.500
v 1.946670 0.936544 -11.854532 1.000 0.500 0.500
v 1.947670 0.936544 -11.855532 1.000 0.500 0.500
v 1.947670 0.935544 -11.854532 1.000 0.500 0.500
f 283 284 285
f 283 285 286
f 283 286 287
f 283 287 284
f 288 285 284
f 288 286 285
f 288 287 286
f 288 284 287
v -2.367497 1.894596 -6.011597 1.000 0.500 0.500
v -2.366497 1.893596 -6.011597 1.000 0.500 0.500
v -2.367497 1.893596 -6.010597 1.000 0.500 0.500
v -2.368497 1.893596 -6.011597 1.000 0.500 0.500
v -2.367497 1.893596 -6.012597 1.000 0.500 0.500
v -2.367497 1.892596 -6.011597 1.000 0.500 0.500
f 289 290 291
f 289 291 292
f 289 292 293
f 289 293 290
f 294 291 290
f 294 292 291
f 294 293 292
f 294 290 293
v -4.663627 -3.980476 -9.196161 1.000 0.500 0.500
v -4.662627 -3.981476 -9.196161 1.000 0.500 0.500
v -4.663627 -3.981476 -9.195161 1.000 0.500 0.500
v -4.664627 -3.981476 -9.196161 1.000 0.500 0.500
v -4.663627 -3.981476 -9.197161 1.000 0.500 0.500
v -4.663627 -3.982476 -9.196161 1.000 0.500 0.500
f 295 296 297
f 295 297 298
f 295 298 299
f 295 299 296
f 300 297 296
f 300 298 297
f 300 299 298
f 300 296 299
v -0.396622 0.907571 -6.546494 1.000 0.500 0.500
v -0.395622 0.906571 -6.546494 1.000 0.500 0.500
v -0.396622 0.906571 -6.545494 1.000 0.500 0.500
v -0.397622 0.906571 -6.546494 1.000 0.500 0.500
v -0.396622 0.906571 -6.547494 1.000 0.500 0.500
v -0.396622 0.905571 -6.546494 1.000 0.500 0.500
f 301 302 303
f 301 303 304
f 301 304 305
f 301 305 302
f 306 303 302
f 306 304 303
f 306 305 304
f 306 302 305
v 1.428922 0.022419 -11.927211 1.000 0.500 0.500
v 1.429922 0.021419 -11.927211 1.000 0.500 0.500
v 1.428922 0.021419 -11.926211 1.000 0.500 0.500
v 1.427922 0.021419 -11.927211 1.000 0.500 0.500
v 1.428922 0.021419 -11.928211 1.000 0.500 0.500
v 1.428922 0.020419 -11.927211 1.000 0.500 0.500
f 307 308 309
f 307 309 310
f 307 310 311
f 307 311 308
f 312 309 308
f 312 310 309
f 312 311 310
f 312 308 311
v 0.345298 -0.981838 -11.979534 1.000 0.525 0.525
v 0.346350 -0.982890 -11.979534 1.000 0.525 0.525
v 0.345298 -0.982890 -11.978482 1.000 0.525 0.525
v 0.344246 -0.982890 -11.979534 1.000 0.525 0.525
v 0.345298 -0.982890 -11.980586 1.000 0.525 0.525
v 0.345298 -0.983942 -11.979534 1.000 0.525 0.525
f 313 314 315
f 313 315 316
f 313 316 317
f 313 317 314
f 318 315 314
f 318 316 315
f 318 317 316
f 318 314 317
v -3.016361 2.329944 -11.026209 0.513 0.500 0.500
v -3.015361 2.328944 -11.026209 0.513 0.500 0.500
v -3.016361 2.328944 -11.025209 0.513 0.500 0.500
v -3.017361 2.328944 -11.026209 0.513 0.500 0.500
v -3.016361 2.328944 -11.027209 0.513 0.500 0.500
v -3.016361 2.327944 -11.026209 0.513 0.500 0.500
f 319 320 321
f 319 321 322
f 319 322 323
f 319 323 320
f 324 321 320
f 324 322 321
f 324 323 322
f 324 320 323
v 2.153965 -3.183332 -6.845823 0.599 0.500 0.500
v 2.154965 -3.184332 -6.845823 0.599 0.500 0.500
v 2.153965 -3.184332 -6.844823 0.599 0.500 0.500
v 2.152965 -3.184332 -6.845823 0.599 0.500 0.500
v 2.153965 -3.184332 -6.846823 0.599 0.500 0.500
v 2.153965 -3.185332 -6.845823 0.599 0.500 0.500
f 325 326 327
f 325 327 328
f 325 328 329
f 325 329 326
f 330 327 326
f 330 328 327
f 330 329 328
f 330 326 329
v -2.892462 -0.253853 -6.181731 0.951 0.500 0.500
v -2.891462 -0.254853 -6.181731 0.951 0.500 0.500
v -2.892462 -0.254853 -6.180731 0.951 0.500 0.500
v -2.893462 -0.254853 -6.181731 0.951 0.500 0.500
v -2.892462 -0.254853 -6.182731 0.951 0.500 0.500
v -2.892462 -0.255853 -6.181731 0.951 0.500 0.500
f 331 332 333
f 331 333 334
f 331 334 335
f 331 335 332
f 336 333 332
f 336 334 333
f 336 335 334
f 336 332 335
v 3.275984 -5.380650 -10.467283 1.000 0.500 0.500
v 3.276984 -5.381650 -10.467283 1.000 0.500 0.500
v 3.275984 -5.381650 -10.466283 1.000 0.500 0.500
v 3.274984 -5.381650 -10.467283 1.000 0.500 0.500
v 3.275984 -5.381650 -10.468283 1.000 0.500 0.500
v 3.275984 -5.382650 -10.467283 1.000 0.500 0.500
f 337 338 339
f 337 339 340
f 337 340 341
f 337 341 338
f 342 339 338
f 342 340 339
f 342 341 340
f 342 338 341
v -1.464348 -0.694027 -8.090517 1.000 0.500 0.500
v -1.463348 -0.695027 -8.090517 1.000 0.500 0.500
v -1.464348 -0.695027 -8.089517 1.000 0.500 0.500
v -1.465348 -0.695027 -8.090517 1.000 0.500 0.500
v -1.464348 -0.695027 -8.091517 1.000 0.500 0.500
v -1.464348 -0.696027 -8.090517 1.000 0.500 0.500
f 343 344 345
f 343 345 346
f 343 346 347
f 343 347 344
f 348 345 344
f 348 346 345
f 348 347 346
f 348 344 347
v -0.782480 -0.869236 -7.070584 1.000 0.525 0.525
v -0.781428 -0.870288 -7.070584 1.000 0.525 0.525
v -0.782480 -0.870288 -7.069532 1.000 0.525 0.525
v -0.783532 -0.870288 -7.070584 1.000 0.525 0.525
v -0.782480 -0.870288 -7.071636 1.000 0.525 0.525
v -0.782480 -0.871340 -7.070584 1.000 0.525 0.525
f 349 350 351
f 349 351 352
f 349 352 353
f 349 353 350
f 354 351 350
f 354 352 351
f 354 353 352
f 354 350 353
v 2.095291 -3.298174 -11.260229 0.920 0.500 0.500
v 2.096291 -3.299174 -11.260229 0.920 0.500 0.500
v 2.095291 -3.299174 -11.259229 0.920 0.500 0.500
v 2.094291 -3.299174 -11.260229 0.920 0.500 0.500
v 2.095291 -3.299174 -11.261229 0.920 0.500 0.500
v 2.095291 -3.300174 -11.260229 0.920 0.500 0.500
f 355 356 357
f 355 357 358
f 355 358 359
f 355 359 356
f 360 357 356
f 360 358 357
f 360 359 358
f 360 356 359
v 1.244189 -4.526330 -7.891976 0.895 0.500 0.500
v 1.245189 -4.527330 -7.891976 0.895 0.500 0.500
v 1.244189 -4.527330 -7.890976 0.895 0.500 0.500
v 1.243189 -4.527330 -7.891976 0.895 0.500 0.500
v 1.244189 -4.527330 -7.892976 0.895 0.500 0.500
v 1.244189 -4.528330 -7.891976 0.895 0.500 0.500
f 361 362 363
f 361 363 364
f 361 364 365
f 361 365 362
f 366 363 362
f 366 364 363
f 366 365 364
f 366 362 365
v -0.618517 2.031201 -6.446574 0.805 0.500 0.500
v -0.617517 2.030201 -6.446574 0.805 0.500 0.500
v -0.618517 2.030201 -6.445574 0.805 0.500 0.500
v -0.619517 2.030201 -6.446574 0.805 0.500 0.500
v -0.618517 2.030201 -6.447574 0.805 0.500 0.500
v -0.618517 2.029201 -6.446574 0.805 0.500 0.500
f 367 368 369
f 367 369 370
f 367 370 371
f 367 371 368
f 372 369 368
f 372 370 369
f 372 371 370
f 372 368 371
v 1.976762 -0.883275 -5.247707 0.771 0.500 0.500
v 1.977762 -0.884275 -5.247707 0.771 0.500 0.500
v 1.976762 -0.884275 -5.246707 0.771 0.500 0.500
v 1.975762 -0.884275 -5.247707 0.771 0.500 0.500
v 1.976762 -0.884275 -5.248707 0.771 0.500 0.500
v 1.976762 -0.885275 -5.247707 0.771 0.500 0.500
f 373 374 375
f 373 375 376
f 373 376 377
f 373 377 374
f 378 375 374
f 378 376 375
f 378 377 376
f 378 374 377
v -2.802167 -2.168334 -6.490411 0.903 0.500 0.500
v -2.801167 -2.169334 -6.490411 0.903 0.500 0.500
v -2.802167 -2.169334 -6.489411 0.903 0.500 0.500
v -2.803167 -2.169334 -6.490411 0.903 0.500 0.500
v -2.802167 -2.169334 -6.491411 0.903 0.500 0.500
v -2.802167 -2.170334 -6.490411 0.903 0.500 0.500
f 379 380 381
f 379 381 382
f 379 382 383
f 379 383 380
f 384 381 380
f 384 382 381
f 384 383 382
f 384 380 383
v 0.577046 1.101272 -7.073208 0.995 0.500 0.500
v 0.578046 1.100272 -7.073208 0.995 0.500 0.500
v 0.577046 1.100272 -7.072208 0.995 0.500 0.500
v 0.576046 1.100272 -7.073208 0.995 0.500 0.500
v 0.577046 1.100272 -7.074208 0.995 0.500 0.500
v 0.577046 1.099272 -7.073208 0.995 0.500 0.500
f 385 386 387
f 385 387 388
f 385 388 389
f 385 389 386
f 390 387 386
f 390 388 387
f 390 389 388
f 390 386 389
v -0.810731 2.075507 -8.466017 0.767 0.500 0.500
v -0.809731 2.074507 -8.466017 0.767 0.500 0.500
v -0.810731 2.074507 -8.465017 0.767 0.500 0.500
v -0.811731 2.074507 -8.466017 0.767 0.500 0.500
v -0.810731 2.074507 -8.467017 0.767 0.500 0.500
v -0.810731 2.073507 -8.466017 0.767 0.500 0.500
f 391 392 393
f 391 393 394
f 391 394 395
f 391 395 392
f 396 393 392
f 396 394 393
f 396 395 394
f 396 392 395
v 0.636115 -0.103361 -8.956980 1.000 0.500 0.500
v 0.637115 -0.104361 -8.956980 1.000 0.500 0.500
v 0.636115 -0.104361 -8.955980 1.000 0.500 0.500
v 0.635115 -0.104361 -8.956980 1.000 0.500 0.500
v 0.636115 -0.104361 -8.957980 1.000 0.500 0.500
v 0.636115 -0.105361 -8.956980 1.000 0.500 0.500
f 397 398 399
f 397 399 400
f 397 400 401
f 397 401 398
f 402 399 398
f 402 400 399
f 402 401 400
f 402 398 401
v 4.244939 -3.035992 -7.464056 1.000 0.500 0.500
v 4.245939 -3.036992 -7.464056 1.000 0.500 0.500
v 4.244939 -3.036992 -7.463056 1.000 0.500 0.500
v 4.243939 -3.036992 -7.464056 1.000 0.500 0.500
v 4.244939 -3.036992 -7.465056 1.000 0.500 0.500
v 4.244939 -3.037992 -7.464056 1.000 0.500 0.500
f 403 404 405
f 403 405 406
f 403 406 407
f 403 407 404
f 408 405 404
f 408 406 405
f 408 407 406
f 408 404 407
v -0.360173 -3.236189 -9.653228 1.000 0.500 0.500
v -0.359173 -3.237189 -9.653228 1.000 0.500 0.500
v -0.360173 -3.237189 -9.652228 1.000 0.500 0.500
v -0.361173 -3.237189 -9.653228 1.000 0.500 0.500
v -0.360173 -3.237189 -9.654228 1.000 0.500 0.500
v -0.360173 -3.238189 -9.653228 1.000 0.500 0.500
f 409 410 411
f 409 411 412
f 409 412 413
f 409 413 410
f 414 411 410
f 414 412 411
f 414 413 412
f 414 410 413
v 1.076984 -0.145050 -7.972255 0.937 0.500 0.500
v 1.077984 -0.146050 -7.972255 0.937 0.500 0.500
v 1.076984 -0.146050 -7.971255 0.937 0.500 0.500
v 1.075984 -0.146050 -7.972255 0.937 0.500 0.500
v 1.076984 -0.146050 -7.973255 0.937 0.500 0.500
v 1.076984 -0.147050 -7.972255 0.937 0.500 0.500
f 415 416 417
f 415 417 418
f 415 418 419
f 415 419 416
f 420 417 416
f 420 418 417
f 420 419 418
f 420 416 419
v 0.529836 -0.496907 -10.279019 1.000 0.525 0.525
v 0.530888 -0.497959 -10.279019 1.000 0.525 0.525
v 0.529836 -0.497959 -10.277967 1.000 0.525 0.525
v 0.528784 -0.497959 -10.279019 1.000 0.525 0.525
v 0.529836 -0.497959 -10.280071 1.000 0.525 0.525
v 0.529836 -0.499011 -10.279019 1.000 0.525 0.525
f 421 422 423
f 421 423 424
f 421 424 425
f 421 425 422
f 426 423 422
f 426 424 423
f 426 425 424
f 426 422 425
v 1.715479 1.142098 -12.806714 1.000 0.500 0.500
v 1.716479 1.141098 -12.806714 1.000 0.500 0.500
v 1.715479 1.141098 -12.805714 1.000 0.500 0.500
v 1.714479 1.141098 -12.806714 1.000 0.500 0.500
v 1.715479 1.141098 -12.807714 1.000 0.500 0.500
v 1.715479 1.140098 -12.806714 1.000 0.500 0.500
f 427 428 429
f 427 429 430
f 427 430 431
f 427 431 428
f 432 429 428
f 432 430 429
f 432 431 430
f 432 428 431
v 1.393627 -0.788862 -7.215761 1.000 0.500 0.500
v 1.394627 -0.789862 -7.215761 1.000 0.500 0.500
v 1.393627 -0.789862 -7.214761 1.000 0.500 0.500
v 1.392627 -0.789862 -7.215761 1.000 0.500 0.500
v 1.393627 -0.789862 -7.216761 1.000 0.500 0.500
v 1.393627 -0.790862 -7.215761 1.000 0.500 0.500
f 433 434 435
f 433 435 436
f 433 436 437
f 433 437 434
f 438 435 434
f 438 436 435
f 438 437 436
f 438 434 437
v 1.792833 2.888690 -5.883032 0.818 0.500 0.500
v 1.793833 2.887690 -5.883032 0.818 0.500 0.500
v 1.792833 2.887690 -5.882032 0.818 0.500 0.500
v 1.791833 2.887690 -5.883032 0.818 0.500 0.500
v 1.792833 2.887690 -5.884032 0.818 0.500 0.500
v 1.792833 2.886690 -5.883032 0.818 0.500 0.500
f 439 440 441
f 439 441 442
f 439 442 443
f 439 443 440
f 444 441 440
f 444 442 441
f 444 443 442
f 444 440 443
v 2.362493 -1.652963 -13.007916 0.827 0.500 0.500
v 2.363493 -1.653963 -13.007916 0.827 0.500 0.500
v 2.362493 -1.653963 -13.006916 0.827 0.500 0.500
v 2.361493 -1.653963 -13.007916 0.827 0.500 0.500
v 2.362493 -1.653963 -13.008916 0.827 0.500 0.500
v 2.362493 -1.654963 -13.007916 0.827 0.500 0.500
f 445 446 447
f 445 447 448
f 445 448 449
f 445 449 446
f 450 447 446
f 450 448 447
f 450 449 448
f 450 446 449
v 1.044337 1.024290 -7.488622 1.000 0.500 0.500
v 1.045337 1.023290 -7.488622 1.000 0.500 0.500
v 1.044337 1.023290 -7.487622 1.000 0.500 0.500
v 1.043337 1.023290 -7.488622 1.000 0.500 0.500
v 1.044337 1.023290 -7.489622 1.000 0.500 0.500
v 1.044337 1.022290 -7.488622 1.000 0.500 0.500
f 451 452 453
f 451 453 454
f 451 454 455
f 451 455 452
f 456 453 452
f 456 454 453
f 456 455 454
f 456 452 455
v 1.784675 -1.670385 -9.079394 1.000 0.500 0.500
v 1.785675 -1.671385 -9.079394 1.000 0.500 0.500
v 1.784675 -1.671385 -9.078394 1.000 0.500 0.500
v 1.783675 -1.671385 -9.079394 1.000 0.500 0.500
v 1.784675 -1.671385 -9.080394 1.000 0.500 0.500
v 1.784675 -1.672385 -9.079394 1.000 0.500 0.500
f 457 458 459
f 457 459 460
f 457 460 461
f 457 461 458
f 462 459 458
f 462 460 459
f 462 461 460
f 462 458 461
v -0.616175 -0.952669 -9.694380 1.000 0.525 0.525
v -0.615123 -0.953721 -9.694380 1.000 0.525 0.525
v -0.616175 -0.953721 -9.693328 1.000 0.525 0.525
v -0.617227 -0.953721 -9.694380 1.000 0.525 0.525
v -0.616175 -0.953721 -9.695432 1.000 0.525 0.525
v -0.616175 -0.954773 -9.694380 1.000 0.525 0.525
f 463 464 465
f 463 465 466
f 463 466 467
f 463 467 464
f 468 465 464
f 468 466 465
f 468 467 466
f 468 464 467
v -3.196996 1.934308 -10.060575 0.682 0.500 0.500
v -3.195996 1.933308 -10.060575 0.682 0.500 0.500
v -3.196996 1.933308 -10.059575 0.682 0.500 0.500
v -3.197996 1.933308 -10.060575 0.682 0.500 0.500
v -3.196996 1.933308 -10.061575 0.682 0.500 0.500
v -3.196996 1.932308 -10.060575 0.682 0.500 0.500
f 469 470 471
f 469 471 472
f 469 472 473
f 469 473 470
f 474 471 470
f 474 472 471
f 474 473 472
f 474 470 473
v 2.041150 -0.045615 -7.826893 1.000 0.500 0.500
v 2.042150 -0.046615 -7.826893 1.000 0.500 0.500
v 2.041150 -0.046615 -7.825893 1.000 0.500 0.500
v 2.040150 -0.046615 -7.826893 1.000 0.500 0.500
v 2.041150 -0.046615 -7.827893 1.000 0.500 0.500
v 2.041150 -0.047615 -7.826893 1.000 0.500 0.500
f 475 476 477
f 475 477 478
f 475 478 479
f 475 479 476
f 480 477 476
f 480 478 477
f 480 479 478
f 480 476 479
v 2.374875 -0.374434 -11.639065 0.669 0.500 0.500
v 2.375875 -0.375434 -11.639065 0.669 0.500 0.500
v 2.374875 -0.375434 -11.638065 0.669 0.500 0.500
v 2.373875 -0.375434 -11.639065 0.669 0.500 0.500
v 2.374875 -0.375434 -11.640065 0.669 0.500 0.500
v 2.374875 -0.376434 -11.639065 0.669 0.500 0.500
f 481 482 483
f 481 483 484
f 481 484 485
f 481 485 482
f 486 483 482
f 486 484 483
f 486 485 484
f 486 482 485
v 0.516908 0.130919 -9.101412 1.000 0.500 0.500
v 0.517908 0.129919 -9.101412 1.000 0.500 0.500
v 0.516908 0.129919 -9.100412 1.000 0.500 0.500
v 0.515908 0.129919 -9.101412 1.000 0.500 0.500
v 0.516908 0.129919 -9.102412 1.000 0.500 0.500
v 0.516908 0.128919 -9.101412 1.000 0.500 0.500
f 487 488 489
f 487 489 490
f 487 490 491
f 487 491 488
f 492 489 488
f 492 490 489
f 492 491 490
f 492 488 491
v -1.445129 2.600947 -10.908171 1.000 0.500 0.500
v -1.444129 2.599947 -10.908171 1.000 0.500 0.500
v -1.445129 2.599947 -10.907171 1.000 0.500 0.500
v -1.446129 2.599947 -10.908171 1.000 0.500 0.500
v -1.445129 2.599947 -10.909171 1.000 0.500 0.500
v -1.445129 2.598947 -10.908171 1.000 0.500 0.500
f 493 494 495
f 493 495 496
f 493 496 497
f 493 497 494
f 498 495 494
f 498 496 495
f 498 497 496
f 498 494 497
v 2.510849 -0.089211 -10.398481 0.948 0.500 0.500
v 2.511849 -0.090211 -10.398481 0.948 0.500 0.500
v 2.510849 -0.090211 -10.397481 0.948 0.500 0.500
v 2.509849 -0.090211 -10.398481 0.948 0.500 0.500
v 2.510849 -0.090211 -10.399481 0.948 0.500 0.500
v 2.510849 -0.091211 -10.398481 0.948 0.500 0.500
f 499 500 501
f 499 501 502
f 499 502 503
f 499 503 500
f 504 501 500
f 504 502 501
f 504 503 502
f 504 500 503
v -3.423786 2.522954 -12.454679 1.000 0.500 0.500
v -3.422786 2.521954 -12.454679 1.000 0.500 0.500
v -3.423786 2.521954 -12.453679 1.000 0.500 0.500
v -3.424786 2.521954 -12.454679 1.000 0.500 0.500
v -3.423786 2.521954 -12.455679 1.000 0.500 0.500
v -3.423786 2.520954 -12.454679 1.000 0.500 0.500
f 505 506 507
f 505 507 508
f 505 508 509
f 505 509 506
f 510 507 506
f 510 508 507
f 510 509 508
f 510 506 509
v -1.824228 -1.717908 -7.381775 1.000 0.500 0.500
v -1.823228 -1.718908 -7.381775 1.000 0.500 0.500
v -1.824228 -1.718908 -7.380775 1.000 0.500 0.500
v -1.825228 -1.718908 -7.381775 1.000 0.500 0.500
v -1.824228 -1.718908 -7.382775 1.000 0.500 0.500
v -1.824228 -1.719908 -7.381775 1.000 0.500 0.500
f 511 512 513
f 511 513 514
f 511 514 515
f 511 515 512
f 516 513 512
f 516 514 513
f 516 515 514
f 516 512 515
v -0.501802 -3.108773 -6.133284 0.605 0.500 0.500
v -0.500802 -3.109773 -6.133284 0.605 0.500 0.500
v -0.501802 -3.109773 -6.132284 0.605 0.500 0.500
v -0.502802 -3.109773 -6.133284 0.605 0.500 0.500
v -0.501802 -3.109773 -6.134284 0.605 0.500 0.500
v -0.501802 -3.110773 -6.133284 0.605 0.500 0.500
f 517 518 519
f 517 519 520
f 517 520 521
f 517 521 518
f 522 519 518
f 522 520 519
f 522 521 520
f 522 518 521
v -0.575775 -1.169677 -7.735106 0.904 0.525 0.525
v -0.574723 -1.170729 -7.735106 0.904 0.525 0.525
v -0.575775 -1.170729 -7.734054 0.904 0.525 0.525
v -0.576827 -1.170729 -7.735106 0.904 0.525 0.525
v -0.575775 -1.170729 -7.736158 0.904 0.525 0.525
v -0.575775 -1.171781 -7.735106 0.904 0.525 0.525
f 523 524 525
f 523 525 526
f 523 526 527
f 523 527 524
f 528 525 524
f 528 526 525
f 528 527 526
f 528 524 527
v -1.552118 1.716497 -11.212910 1.000 0.500 0.500
v -1.551118 1.715497 -11.212910 1.000 0.500 0.500
v -1.552118 1.715497 -11.211910 1.000 0.500 0.500
v -1.553118 1.715497 -11.212910 1.000 0.500 0.500
v -1.552118 1.715497 -11.213910 1.000 0.500 0.500
v -1.552118 1.714497 -11.212910 1.000 0.500 0.500
f 529 530 531
f 529 531 532
f 529 532 533
f 529 533 530
f 534 531 530
f 534 532 531
f 534 533 532
f 534 530 533
v -3.095025 -2.156756 -6.874548 1.000 0.500 0.500
v -3.094025 -2.157756 -6.874548 1.000 0.500 0.500
v -3.095025 -2.157756 -6.873548 1.000 0.500 0.500
v -3.096025 -2.157756 -6.874548 1.000 0.500 0.500
v -3.095025 -2.157756 -6.875548 1.000 0.500 0.500
v -3.095025 -2.158756 -6.874548 1.000 0.500 0.500
f 535 536 537
f 535 537 538
f 535 538 539
f 535 539 536
f 540 537 536
f 540 538 537
f 540 539 538
f 540 536 539
v 3.105999 -1.432214 -11.436954 0.997 0.500 0.500
v 3.106999 -1.433214 -11.436954 0.997 0.500 0.500
v 3.105999 -1.433214 -11.435954 0.997 0.500 0.500
v 3.104999 -1.433214 -11.436954 0.997 0.500 0.500
v 3.105999 -1.433214 -11.437954 0.997 0.500 0.500
v 3.105999 -1.434214 -11.436954 0.997 0.500 0.500
f 541 542 543
f 541 543 544
f 541 544 545
f 541 545 542
f 546 543 542
f 546 544 543
f 546 545 544
f 546 542 545
v -0.269038 -4.211335 -11.916267 0.800 0.500 0.500
v -0.268038 -4.212335 -11.916267 0.800 0.500 0.500
v -0.269038 -4.212335 -11.915267 0.800 0.500 0.500
v -0.270038 -4.212335 -11.916267 0.800 0.500 0.500
v -0.269038 -4.212335 -11.917267 0.800 0.500 0.500
v -0.269038 -4.213335 -11.916267 0.800 0.500 0.500
f 547 548 549
f 547 549 550
f 547 550 551
f 547 551 548
f 552 549 548
f 552 550 549
f 552 551 550
f 552 548 551
v -0.842017 -1.058202 -6.931767 0.580 0.525 0.525
v -0.840965 -1.059254 -6.931767 0.580 0.525 0.525
v -0.842017 -1.059254 -6.930715 0.580 0.525 0.525
v -0.843069 -1.059254 -6.931767 0.580 0.525 0.525
v -0.842017 -1.059254 -6.932818 0.580 0.525 0.525
v -0.842017 -1.060306 -6.931767 0.580 0.525 0.525
f 553 554 555
f 553 555 556
f 553 556 557
f 553 557 554
f 558 555 554
f 558 556 555
f 558 557 556
f 558 554 557
v -1.743154 -0.539216 -10.486320 1.000 0.510 0.510
v -1.742103 -0.540267 -10.486320 1.000 0.510 0.510
v -1.743154 -0.540267 -10.485270 1.000 0.510 0.510
v -1.744205 -0.540267 -10.486320 1.000 0.510 0.510
v -1.743154 -0.540267 -10.487371 1.000 0.510 0.510
v -1.743154 -0.541318 -10.486320 1.000 0.510 0.510
f 559 560 561
f 559 561 562
f 559 562 563
f 559 563 560
f 564 561 560
f 564 562 561
f 564 563 562
f 564 560 563
v -2.536202 -2.049712 -8.743942 0.630 0.500 0.500
v -2.535202 -2.050712 -8.743942 0.630 0.500 0.500
v -2.536202 -2.050712 -8.742942 0.630 0.500 0.500
v -2.537202 -2.050712 -8.743942 0.630 0.500 0.500
v -2.536202 -2.050712 -8.744942 0.630 0.500 0.500
v -2.536202 -2.051712 -8.743942 0.630 0.500 0.500
f 565 566 567
f 565 567 568
f 565 568 569
f 565 569 566
f 570 567 566
f 570 568 567
f 570 569 568
f 570 566 569
v 1.942632 2.582930 -5.677247 0.574 0.500 0.500
v 1.943632 2.581930 -5.677247 0.574 0.500 0.500
v 1.942632 2.581930 -5.676247 0.574 0.500 0.500
v 1.941632 2.581930 -5.677247 0.574 0.500 0.500
v 1.942632 2.581930 -5.678247 0.574 0.500 0.500
v 1.942632 2.580930 -5.677247 0.574 0.500 0.500
f 571 572 573
f 571 573 574
f 571 574 575
f 571 575 572
f 576 573 572
f 576 574 573
f 576 575 574
f 576 572 575
v -2.210318 -1.521413 -9.240772 1.000 0.500 0.500
v -2.209318 -1.522413 -9.240772 1.000 0.500 0.500
v -2.210318 -1.522413 -9.239772 1.000 0.500 0.500
v -2.211318 -1.522413 -9.240772 1.000 0.500 0.500
v -2.210318 -1.522413 -9.241772 1.000 0.500 0.500
v -2.210318 -1.523413 -9.240772 1.000 0.500 0.500
f 577 578 579
f 577 579 580
f 577 580 581
f 577 581 578
f 582 579 578
f 582 580 579
f 582 581 580
f 582 578 581
v 0.539162 -2.444577 -11.403502 1.000 0.476 0.476
v 0.540213 -2.445628 -11.403502 1.000 0.476 0.476
v 0.539162 -2.445628 -11.402451 1.000 0.476 0.476
v 0.538111 -2.445628 -11.403502 1.000 0.476 0.476
v 0.539162 -2.445628 -11.404554 1.000 0.476 0.476
v 0.539162 -2.446679 -11.403502 1.000 0.476 0.476
f 583 584 585
f 583 585 586
f 583 586 587
f 583 587 584
f 588 585 584
f 588 586 585
f 588 587 586
f 588 584 587
v -2.159768 -2.834540 -4.906859 1.000 0.500 0.500
v -2.158768 -2.835540 -4.906859 1.000 0.500 0.500
v -2.159768 -2.835540 -4.905859 1.000 0.500 0.500
v -2.160768 -2.835540 -4.906859 1.000 0.500 0.500
v -2.159768 -2.835540 -4.907859 1.000 0.500 0.500
v -2.159768 -2.836540 -4.906859 1.000 0.500 0.500
f 589 590 591
f 589 591 592
f 589 592 593
f 589 593 590
f 594 591 590
f 594 592 591
f 594 593 592
f 594 590 593
v -1.566748 -1.982665 -8.919999 1.000 0.525 0.525
v -1.565695 -1.983717 -8.919999 1.000 0.525 0.525
v -1.566748 -1.983717 -8.918947 1.000 0.525 0.525
v -1.567800 -1.983717 -8.919999 1.000 0.525 0.525
v -1.566748 -1.983717 -8.921051 1.000 0.525 0.525
v -1.566748 -1.984769 -8.919999 1.000 0.525 0.525
f 595 596 597
f 595 597 598
f 595 598 599
f 595 599 596
f 600 597 596
f 600 598 597
f 600 599 598
f 600 596 599
v -1.205348 -0.272842 -6.465115 0.660 0.500 0.500
v -1.204348 -0.273842 -6.465115 0.660 0.500 0.500
v -1.205348 -0.273842 -6.464115 0.660 0.500 0.500
v -1.206348 -0.273842 -6.465115 0.660 0.500 0.500
v -1.205348 -0.273842 -6.466115 0.660 0.500 0.500
v -1.205348 -0.274842 -6.465115 0.660 0.500 0.500
f 601 602 603
f 601 603 604
f 601 604 605
f 601 605 602
f 606 603 602
f 606 604 603
f 606 605 604
f 606 602 605
